<svg width="1200" height="720" viewBox="0 0 1200 720" fill="none" xmlns="http://www.w3.org/2000/svg">
  <defs>
    <linearGradient id="bg" x1="0" y1="0" x2="1200" y2="720" gradientUnits="userSpaceOnUse">
      <stop stop-color="#FBF5EB"/>
      <stop offset="1" stop-color="#DDEFFF"/>
    </linearGradient>
  </defs>
  <rect width="1200" height="720" rx="28" fill="url(#bg)"/>
  <rect x="70" y="86" width="1060" height="548" rx="28" fill="#FFFDF9" stroke="#C9DDEA" stroke-width="2"/>
  <text x="116" y="158" fill="#12314F" font-family="Inter, Segoe UI, sans-serif" font-size="48" font-weight="700">View-only advisory loop</text>
  <text x="116" y="202" fill="#31556F" font-family="Inter, Segoe UI, sans-serif" font-size="24">Marked as reviewed, logged in Timeline, and deduped in the next analysis pass.</text>
  <rect x="116" y="258" width="288" height="214" rx="24" fill="#173B63"/>
  <text x="148" y="314" fill="#EEF6FF" font-family="Inter, Segoe UI, sans-serif" font-size="28" font-weight="700">1. Advisory card</text>
  <text x="148" y="360" fill="#D4E6F7" font-family="Inter, Segoe UI, sans-serif" font-size="20">view only</text>
  <text x="148" y="392" fill="#D4E6F7" font-family="Inter, Segoe UI, sans-serif" font-size="20">no command runs</text>
  <text x="148" y="424" fill="#D4E6F7" font-family="Inter, Segoe UI, sans-serif" font-size="20">press y to mark reviewed</text>
  <path d="M430 366H550" stroke="#12314F" stroke-width="6" stroke-linecap="round"/>
  <path d="M530 346L550 366L530 386" stroke="#12314F" stroke-width="6" stroke-linecap="round" stroke-linejoin="round"/>
  <rect x="576" y="258" width="248" height="214" rx="24" fill="#F2B15A"/>
  <text x="606" y="314" fill="#4D2C00" font-family="Inter, Segoe UI, sans-serif" font-size="28" font-weight="700">2. Timeline</text>
  <text x="606" y="360" fill="#6F4611" font-family="Inter, Segoe UI, sans-serif" font-size="20">Viewed advisory:</text>
  <text x="606" y="392" fill="#6F4611" font-family="Inter, Segoe UI, sans-serif" font-size="20">review .gitignore</text>
  <path d="M850 366H970" stroke="#12314F" stroke-width="6" stroke-linecap="round"/>
  <path d="M950 346L970 366L950 386" stroke="#12314F" stroke-width="6" stroke-linecap="round" stroke-linejoin="round"/>
  <rect x="996" y="258" width="88" height="214" rx="24" fill="#DCEFF7"/>
  <text x="1022" y="320" fill="#12314F" font-family="Inter, Segoe UI, sans-serif" font-size="22" font-weight="700">3.</text>
  <text x="1022" y="360" fill="#31556F" font-family="Inter, Segoe UI, sans-serif" font-size="18">Deduped</text>
  <text x="1022" y="392" fill="#31556F" font-family="Inter, Segoe UI, sans-serif" font-size="18">next pass</text>
  <text x="116" y="548" fill="#31556F" font-family="Inter, Segoe UI, sans-serif" font-size="22">The advisory is visible, acknowledged, and closed without forcing a fake execution step.</text>
</svg>
